<svg xmlns="http://www.w3.org/2000/svg" xmlns:svg="http://www.w3.org/2000/svg" xmlns:xlink="http://www.w3.org/1999/xlink" id="svg11300" width="192" height="152" version="1.0" style="display:inline;enable-background:new" viewBox="0 0 192 152" xml:space="preserve"><title id="title4162">Adwaita Icon Template</title><defs id="defs3"><linearGradient id="linearGradient1645"><stop style="stop-color:#1ebef1;stop-opacity:1" id="stop1643" offset="0"/><stop style="stop-color:#2509e8;stop-opacity:1" id="stop1641" offset="1"/></linearGradient><linearGradient id="linearGradient139633"><stop style="stop-color:#fff;stop-opacity:0" id="stop139629" offset="0"/><stop style="stop-color:#fff;stop-opacity:.26333514" id="stop139637" offset=".3"/><stop style="stop-color:#fff;stop-opacity:0" id="stop139631" offset="1"/></linearGradient><linearGradient id="linearGradient128955"><stop style="stop-color:#9a9996;stop-opacity:0" id="stop128951" offset="0"/><stop style="stop-color:#9a9996;stop-opacity:0" id="stop128963" offset=".779"/><stop style="stop-color:#77767b;stop-opacity:1" id="stop128953" offset="1"/></linearGradient><linearGradient id="linearGradient110698"><stop style="stop-color:#5e5c64;stop-opacity:1" id="stop110694" offset="0"/><stop style="stop-color:#241f31;stop-opacity:1" id="stop110696" offset="1"/></linearGradient><linearGradient id="linearGradient108976"><stop style="stop-color:#241f31;stop-opacity:1" id="stop108974" offset="0"/><stop style="stop-color:#77767b;stop-opacity:1" id="stop109033" offset=".288"/><stop style="stop-color:#2f2840;stop-opacity:1" id="stop109087" offset=".652"/><stop style="stop-color:#241f31;stop-opacity:1" id="stop108970" offset="1"/></linearGradient><linearGradient id="linearGradient101536"><stop style="stop-color:#576ce3;stop-opacity:1" id="stop101534" offset="0"/><stop style="stop-color:#bb34b1;stop-opacity:1" id="stop101540" offset="0"/><stop style="stop-color:#e31f9e;stop-opacity:1" id="stop101532" offset="1"/></linearGradient><linearGradient id="linearGradient96325"><stop style="stop-color:#46a2ed;stop-opacity:1" id="stop96321" offset="0"/><stop style="stop-color:#41c6f1;stop-opacity:1" id="stop96323" offset="1"/></linearGradient><linearGradient id="linearGradient72991"><stop style="stop-color:#c9c8c5;stop-opacity:1" id="stop72987" offset="0"/><stop style="stop-color:#f6f5f4;stop-opacity:1" id="stop72989" offset="1"/></linearGradient><linearGradient id="linearGradient72098"><stop style="stop-color:#e5a50a;stop-opacity:1" id="stop72094" offset="0"/><stop style="stop-color:#f6d32d;stop-opacity:1" id="stop72096" offset="1"/></linearGradient><linearGradient id="linearGradient24448"><stop style="stop-color:#f6f5f4;stop-opacity:.5" id="stop24444" offset="0"/><stop style="stop-color:#fff;stop-opacity:0" id="stop24446" offset="1"/></linearGradient><linearGradient id="linearGradient2438"><stop style="stop-color:#3d3846;stop-opacity:1" id="stop2426" offset="0"/><stop style="stop-color:#5e5c64;stop-opacity:1" id="stop2428" offset=".036"/><stop style="stop-color:#3d3846;stop-opacity:1" id="stop2430" offset=".071"/><stop style="stop-color:#3d3846;stop-opacity:1" id="stop2432" offset=".929"/><stop style="stop-color:#5e5c64;stop-opacity:1" id="stop2434" offset=".964"/><stop style="stop-color:#3d3846;stop-opacity:1" id="stop2436" offset="1"/></linearGradient><linearGradient id="linearGradient74747" x1="16" x2="128" y1="74" y2="74" gradientTransform="matrix(1,0,0,0.76923687,5.1438887,220.74152)" gradientUnits="userSpaceOnUse" xlink:href="#linearGradient2438"/><linearGradient id="linearGradient5007" x1="-2.958" x2="62.958" y1="214" y2="214" gradientUnits="userSpaceOnUse" xlink:href="#linearGradient108976"/><radialGradient id="radialGradient6015" cx="26" cy="190.167" r="14" fx="26" fy="190.167" gradientTransform="matrix(1,0,0,1.7142857,0,-140)" gradientUnits="userSpaceOnUse" xlink:href="#linearGradient110698"/><linearGradient id="linearGradient5523" x1="72.062" x2="40.97" y1="230.291" y2="310.562" gradientTransform="matrix(0.81003581,-0.70710676,0.81003581,0.70710676,-409.01185,139.54548)" gradientUnits="userSpaceOnUse" xlink:href="#linearGradient1645"/><linearGradient id="linearGradient23094" x1="-180" x2="-166" y1="258" y2="258" gradientUnits="userSpaceOnUse" xlink:href="#linearGradient24448"/><linearGradient id="linearGradient72040" x1="50" x2="70" y1="258" y2="258" gradientTransform="translate(-322,-194)" gradientUnits="userSpaceOnUse" xlink:href="#linearGradient101536"/><linearGradient id="linearGradient72100" x1="84" x2="104" y1="258" y2="258" gradientTransform="translate(-356,-160)" gradientUnits="userSpaceOnUse" xlink:href="#linearGradient72098"/><linearGradient id="linearGradient72168" x1="50" x2="70" y1="258" y2="258" gradientTransform="translate(-286,-194)" gradientUnits="userSpaceOnUse" xlink:href="#linearGradient72991"/><linearGradient id="linearGradient72170" x1="84" x2="104" y1="258" y2="258" gradientTransform="translate(-320,-160)" gradientUnits="userSpaceOnUse" xlink:href="#linearGradient96325"/><radialGradient id="radialGradient128957" cx="30" cy="186" r="14" fx="30" fy="186" gradientTransform="matrix(1.1894623,0,0,1,-5.6838684,-1.5426457e-7)" gradientUnits="userSpaceOnUse" xlink:href="#linearGradient128955"/><linearGradient id="linearGradient139635" x1="4" x2="56" y1="210.5" y2="210.5" gradientUnits="userSpaceOnUse" xlink:href="#linearGradient139633"/></defs><metadata id="metadata4"/><g id="layer1" style="display:inline" transform="translate(8,-156)"><g id="layer4" style="display:inline"><rect id="hicolor" width="128" height="128" x="0" y="172" style="display:inline;overflow:visible;visibility:visible;fill:#f0f0f0;fill-opacity:0;fill-rule:nonzero;stroke:none;stroke-width:.5;marker:none;enable-background:accumulate"/><rect style="display:inline;overflow:visible;visibility:visible;fill:#f0f0f0;fill-opacity:0;fill-rule:nonzero;stroke:none;stroke-width:.5;marker:none;enable-background:accumulate" id="symbolic" width="16" height="16" x="160" y="172"/></g><g id="layer2" style="display:inline"><rect style="display:inline;overflow:visible;visibility:visible;fill:#f0f0f0;fill-opacity:1;fill-rule:nonzero;stroke:none;stroke-width:.5;marker:none;enable-background:accumulate" id="128" width="128" height="128" x="0" y="172"/><rect id="16" width="16" height="16" x="160" y="172" style="display:inline;overflow:visible;visibility:visible;fill:#f0f0f0;fill-opacity:1;fill-rule:nonzero;stroke:none;stroke-width:.5;marker:none;enable-background:accumulate"/><text xml:space="preserve" style="font-style:normal;font-variant:normal;font-weight:700;font-stretch:normal;font-size:4px;line-height:125%;font-family:Cantarell;-inkscape-font-specification:'Cantarell, Bold';text-align:start;writing-mode:lr-tb;text-anchor:start;display:inline;fill:#000;fill-opacity:1;stroke:none;stroke-width:.332649;enable-background:new" id="text863" x="0" y="167"><tspan style="font-size:4px;stroke-width:.332649" id="tspan861" x="0" y="167">Hicolor</tspan></text><text id="text867" x="160" y="167" style="font-style:normal;font-variant:normal;font-weight:700;font-stretch:normal;font-size:4px;line-height:125%;font-family:Cantarell;-inkscape-font-specification:'Cantarell, Bold';text-align:start;writing-mode:lr-tb;text-anchor:start;display:inline;fill:#000;fill-opacity:1;stroke:none;stroke-width:.332649;enable-background:new" xml:space="preserve"><tspan id="tspan865" x="160" y="167" style="font-size:4px;stroke-width:.332649">Symbolic</tspan></text></g><g id="layer9" style="display:inline"><path id="path38022" fill="#222" d="m 243.34042,121.44613 c -0.52344,0.0156 -1.01562,0.23437 -1.375,0.60547 l -1.58594,1.58593 -1.08593,-1.08593 c -0.0977,-0.0937 -0.22657,-0.14844 -0.36329,-0.14844 -0.1289,0.004 -0.2539,0.0547 -0.34375,0.14844 l -2.12109,2.12109 c -0.19531,0.19531 -0.19531,0.51172 0,0.70703 l 0.64453,0.64844 -5.58594,5.58203 c -0.0937,0.0977 -0.14453,0.22266 -0.14453,0.35547 v 1.79297 l -0.85547,0.85156 c -0.19531,0.19531 -0.19531,0.51563 0,0.71094 l 1,1 c 0.19532,0.1914 0.51172,0.1914 0.70704,0 l 0.85546,-0.85547 h 1.79297 c 0.12891,0 0.25782,-0.0508 0.35157,-0.14453 l 5.58593,-5.58594 0.64844,0.64453 c 0.19141,0.19531 0.51172,0.19531 0.70703,0 l 2.1211,-2.12109 c 0.1914,-0.19531 0.1914,-0.51172 0,-0.70703 l -1.08594,-1.08594 1.58594,-1.58594 c 1.30468,-1.27344 0.36718,-3.48828 -1.45313,-3.43359 z m -5.02344,5.78906 1.29297,1.29297 -2.9375,2.9375 h -2.58594 z m 0,0" style="display:inline;enable-background:new"/><g id="g47089" transform="translate(80)" style="display:inline;enable-background:new"><path id="path47077" fill="#222" d="m 163.54464,172.63139 c -0.3591,0.38116 -0.55243,0.88388 -0.54414,1.4004 l -10e-6,1.00021 h -1.50054 c -0.13534,0.003 -0.26517,0.0552 -0.36185,0.15192 -0.0883,0.094 -0.14085,0.21821 -0.1381,0.34803 v 1.99967 c 0,0.27621 0.22373,0.49995 0.49994,0.49995 L 162,178.03457 161.997,185 l 2.003,2 -0.003,0.997 2.00301,0.003 -1e-5,-1 2.00001,-1.99723 -1e-5,-6.96819 0.50004,-0.003 c 0.27346,0.003 0.49995,-0.22374 0.49995,-0.49995 l 1e-5,-1.99969 c -0.003,-0.27343 -0.2265,-0.49717 -0.49995,-0.49994 h -1.50045 v -1.00021 c 0.0221,-1.82301 -2.20695,-2.72622 -3.45543,-1.4004 z M 164,178 h 2 v 2 l -2,2 z" style="fill:#222;fill-opacity:1"/><circle style="opacity:1;fill:#222;fill-opacity:1;stroke:none;stroke-width:8;stroke-linecap:round;stroke-linejoin:round;stroke-opacity:.14" id="circle47079" cx="172.5" cy="175" r="2"/><circle style="opacity:1;fill:#222;fill-opacity:1;stroke:none;stroke-width:8;stroke-linecap:round;stroke-linejoin:round;stroke-opacity:.14" id="circle47081" cx="172.5" cy="185" r="2"/><circle style="opacity:1;fill:#222;fill-opacity:1;stroke:none;stroke-width:8;stroke-linecap:round;stroke-linejoin:round;stroke-opacity:.14" id="circle47083" cx="172.5" cy="180" r="2"/></g><g id="g51162" transform="translate(110)" style="display:inline;enable-background:new"><path id="path51150" fill="#222" d="m 163.54464,172.63139 c -0.3591,0.38116 -0.55243,0.88388 -0.54414,1.4004 l -10e-6,2.00021 h -1.50054 c -0.13534,0.003 -0.26517,0.0552 -0.36185,0.15192 -0.0883,0.094 -0.14085,0.21821 -0.1381,0.34803 v 0.99967 c 0,0.27621 0.22373,0.49995 0.49994,0.49995 L 163,178.03457 162.997,186 l 1.003,1 -0.003,0.997 2.00301,0.003 -1e-5,-1 1.00001,-0.99723 -1e-5,-7.96819 1.50004,-0.003 c 0.27346,0.003 0.49995,-0.22374 0.49995,-0.49995 l 1e-5,-0.99969 c -0.003,-0.27343 -0.2265,-0.49717 -0.49995,-0.49994 h -1.50045 v -2.00021 c 0.0221,-1.82301 -2.20695,-2.72622 -3.45543,-1.4004 z M 164,178 h 2 v 3 l -2,2 z" style="fill:#222;fill-opacity:1"/><circle style="opacity:1;fill:#222;fill-opacity:1;stroke:none;stroke-width:8;stroke-linecap:round;stroke-linejoin:round;stroke-opacity:.14" id="circle51152" cx="172.5" cy="175" r="2"/><circle style="opacity:1;fill:#222;fill-opacity:1;stroke:none;stroke-width:8;stroke-linecap:round;stroke-linejoin:round;stroke-opacity:.14" id="circle51154" cx="172.5" cy="185" r="2"/><circle style="opacity:1;fill:#222;fill-opacity:1;stroke:none;stroke-width:8;stroke-linecap:round;stroke-linejoin:round;stroke-opacity:.14" id="circle51156" cx="172.5" cy="180" r="2"/></g><path id="path51164" style="display:inline;enable-background:new;fill:#222;fill-opacity:1" d="m 162,177 -0.004,8 2.00391,2 -0.004,0.99609 L 166,188 v -1 l 2,-1.99805 V 177 h -2 v 3 l -2,2 v -5 z"/><circle style="display:inline;enable-background:new;fill:#222;fill-opacity:1;stroke:none;stroke-width:8;stroke-linecap:round;stroke-linejoin:round;stroke-opacity:.14" id="circle51166" cx="172.5" cy="175" r="2"/><circle style="display:inline;enable-background:new;fill:#222;fill-opacity:1;stroke:none;stroke-width:8;stroke-linecap:round;stroke-linejoin:round;stroke-opacity:.14" id="circle51168" cx="172.5" cy="185" r="2"/><circle style="display:inline;enable-background:new;fill:#222;fill-opacity:1;stroke:none;stroke-width:8;stroke-linecap:round;stroke-linejoin:round;stroke-opacity:.14" id="circle51170" cx="172.5" cy="180" r="2"/><rect style="display:inline;enable-background:new;opacity:1;fill:#222;fill-opacity:1;stroke:none;stroke-width:6;stroke-linecap:round;stroke-linejoin:round;stroke-opacity:.14" id="rect59387" width="8" height="2" x="161" y="176" rx=".5"/><rect style="display:inline;enable-background:new;opacity:1;fill:#222;fill-opacity:1;stroke:none;stroke-width:5.19615;stroke-linecap:round;stroke-linejoin:round;stroke-opacity:.14" id="rect59493" width="4" height="3" x="163" y="174"/><path style="display:inline;enable-background:new;opacity:1;fill:#222;fill-opacity:1;stroke:none;stroke-width:6;stroke-linecap:round;stroke-linejoin:round;stroke-opacity:.14" id="path59547" d="m -163,-174 a 2,2 0 0 1 -1,1.73205 2,2 0 0 1 -2,0 2,2 0 0 1 -1,-1.73205" transform="scale(-1)"/><g id="g2210" transform="translate(-13.143888,-9.665131)" style="display:inline;enable-background:new"><rect style="display:inline;fill:url(#linearGradient74747);fill-opacity:1;stroke-width:99.9999;stroke-linecap:square;stroke-dashoffset:26.4;enable-background:new" id="rect2389-5" width="112" height="40" x="21.144" y="257.665" rx="8"/><rect style="display:inline;fill:#5e5c64;stroke-width:134.164;stroke-linecap:square;stroke-dashoffset:26.4;enable-background:new" id="rect1581-25" width="112" height="80" x="21.144" y="209.665" rx="8" ry="8"/></g><circle style="fill:url(#linearGradient72170);fill-opacity:1;stroke-width:10.5827;stroke-linecap:round;stroke-linejoin:round" id="circle72164" cx="-222" cy="98" r="14" transform="rotate(-90)"/><circle style="fill:url(#linearGradient72168);fill-opacity:1;stroke-width:10.5827;stroke-linecap:round;stroke-linejoin:round" id="circle72166" cx="-222" cy="64" r="14" transform="rotate(-90)"/><circle style="fill:url(#linearGradient72100);fill-opacity:1;stroke-width:10.5827;stroke-linecap:round;stroke-linejoin:round" id="circle807" cx="-258" cy="98" r="14" transform="rotate(-90)"/><circle style="fill:url(#linearGradient72040);fill-opacity:1;stroke-width:10.5827;stroke-linecap:round;stroke-linejoin:round" id="circle811" cx="-258" cy="64" r="14" transform="rotate(-90)"/><path id="circle80287" style="fill:#000;fill-opacity:1;stroke-width:10.5827;stroke-linecap:round;stroke-linejoin:round;opacity:.3" d="M -208 64 A 14 14 0 0 0 -222 50 A 14 14 0 0 0 -223.5 50.169922 A 14 14 0 0 1 -211 64 A 14 14 0 0 1 -223.14844 77.871094 A 14 14 0 0 0 -222 78 A 14 14 0 0 0 -208 64 z M -208 98 A 14 14 0 0 0 -222 84 A 14 14 0 0 0 -223.5 84.169922 A 14 14 0 0 1 -211 98 A 14 14 0 0 1 -223.14844 111.87109 A 14 14 0 0 0 -222 112 A 14 14 0 0 0 -208 98 z M -244 64 A 14 14 0 0 0 -258 50 A 14 14 0 0 0 -259.5 50.169922 A 14 14 0 0 1 -247 64 A 14 14 0 0 1 -259.14844 77.871094 A 14 14 0 0 0 -258 78 A 14 14 0 0 0 -244 64 z M -244 98 A 14 14 0 0 0 -258 84 A 14 14 0 0 0 -259.5 84.169922 A 14 14 0 0 1 -247 98 A 14 14 0 0 1 -259.14844 111.87109 A 14 14 0 0 0 -258 112 A 14 14 0 0 0 -244 98 z" transform="rotate(-90)"/><g id="g5521" transform="translate(196)" style="display:inline;enable-background:new"><path id="path5517" style="display:inline;fill:#fff;fill-opacity:.60000002;stroke:none;stroke-width:1px;stroke-linecap:butt;stroke-linejoin:miter;stroke-opacity:1;enable-background:new" d="m -180,218 v 55.59961 c 0,3.5343 2.02755,8.47116 3.89648,11.46484 2.43726,3.90404 3.74367,7.97318 4.79102,12.93555 h 10.625 c 1.04735,-4.96237 2.35376,-9.03151 4.79102,-12.93555 1.86893,-2.99368 3.89648,-7.93054 3.89648,-11.46484 V 218 Z"/><path id="path5519" style="display:inline;vector-effect:none;fill:url(#linearGradient5523);fill-opacity:1;stroke:none;stroke-width:15.039;stroke-linecap:round;stroke-linejoin:miter;stroke-miterlimit:4;stroke-dasharray:none;stroke-dashoffset:0;stroke-opacity:1;marker:none;marker-start:none;marker-mid:none;marker-end:none;paint-order:normal;enable-background:new" d="m -159.34868,236.04741 c -2.9335,0.3937 -3.86383,3.15931 -5.03218,5.63618 -2.22671,4.79719 -4.54733,-0.0261 -8.09961,0 -0.69395,0.005 -1.42497,0.35793 -2.14547,0.91744 -0.49959,0.37485 -0.98321,0.9045 -1.37411,1.31303 v 29.68555 c 0,2.00449 1.77806,6.92536 3.28906,9.3457 2.1671,3.4713 3.42497,7.15666 4.44141,11.05469 h 4.53906 c 1.01644,-3.89803 2.27431,-7.58339 4.44141,-11.05469 1.511,-2.42034 3.28917,-7.34121 3.28906,-9.3457 l -0.002,-37.16406 c -1.1779,-0.38465 -2.22831,-0.44167 -3.34663,-0.38814 z"/><path id="path23055" style="display:inline;fill:url(#linearGradient23094);fill-opacity:1;stroke:none;stroke-width:1px;stroke-linecap:butt;stroke-linejoin:miter;stroke-opacity:1;enable-background:new" d="m -180,218 v 55.59961 c 0,3.5343 2.02755,8.47116 3.89648,11.46484 2.43726,3.90404 3.74367,7.97318 4.79102,12.93555 h 10.625 c 1.04735,-4.96237 2.35376,-9.03151 4.79102,-12.93555 1.86893,-2.99368 3.89648,-7.93054 3.89648,-11.46484 V 218 Z"/></g><path id="path185501" d="M 24.000008,275.18596 V 222.00001" style="opacity:1;fill:none;fill-rule:evenodd;stroke:#fff;stroke-width:16;stroke-linecap:round;stroke-linejoin:miter;stroke-miterlimit:4;stroke-dasharray:none;stroke-opacity:.14"/><path style="opacity:1;fill:none;fill-rule:evenodd;stroke:#fff;stroke-width:4;stroke-linecap:round;stroke-linejoin:miter;stroke-miterlimit:4;stroke-dasharray:none;stroke-opacity:.30000001" id="path185503" d="m 24.00001,273.18596 -1e-6,-53.18595"/><rect style="fill:url(#radialGradient6015);fill-opacity:1;stroke:none;stroke-width:17.5271;stroke-linecap:round;stroke-linejoin:round;stroke-dasharray:none" id="rect5999" width="28" height="48" x="16" y="172" rx="14" ry="14"/><rect style="fill:url(#linearGradient5007);fill-opacity:1;stroke:none;stroke-width:16;stroke-linecap:round;stroke-linejoin:round;stroke-dasharray:none" id="rect4015" width="52" height="12" x="4" y="208" rx="3"/><path id="rect115986" style="fill:#000;fill-opacity:.15000001;stroke:none;stroke-width:16;stroke-linecap:round;stroke-linejoin:round;stroke-dasharray:none" d="M 4 215 L 4 217 C 4 218.662 5.3380017 220 7 220 L 53 220 C 54.661998 220 56 218.662 56 217 L 56 215 C 56 216.662 54.661998 218 53 218 L 7 218 C 5.3380017 218 4 216.662 4 215 z"/><path style="opacity:1;fill:url(#radialGradient128957);fill-opacity:1;stroke:none;stroke-width:9.88235;stroke-linecap:round;stroke-linejoin:round;stroke-opacity:.14" id="path128897" d="m 16,186 a 14,14 0 0 1 14,-14 14,14 0 0 1 14,14"/><path id="path133541" style="fill:url(#linearGradient139635);fill-opacity:1;stroke:none;stroke-width:16;stroke-linecap:round;stroke-linejoin:round;stroke-dasharray:none" d="m 4,213 v -2 c 0,-1.662 1.3380017,-3 3,-3 h 46 c 1.661998,0 3,1.338 3,3 v 2 c 0,-1.662 -1.338002,-3 -3,-3 H 7 c -1.6619983,0 -3,1.338 -3,3 z"/></g><g id="layer3" style="display:inline"><circle id="circle2892" cx="64" cy="236" r="59.504" style="display:inline;opacity:.1;vector-effect:none;fill:none;fill-opacity:1;stroke:#000;stroke-width:.99000001;stroke-linecap:butt;stroke-linejoin:miter;stroke-miterlimit:4;stroke-dasharray:.99000001,.99000001;stroke-dashoffset:0;stroke-opacity:1;marker:none;marker-start:none;marker-mid:none;marker-end:none;paint-order:normal;enable-background:new"/><rect id="rect2894" width="87.01" height="111.01" x="20.495" y="180.495" rx="8.701" ry="7.929" style="display:inline;opacity:.1;vector-effect:none;fill:none;fill-opacity:1;stroke:#000;stroke-width:.99000001;stroke-linecap:butt;stroke-linejoin:miter;stroke-miterlimit:4;stroke-dasharray:.99000001,.99000001;stroke-dashoffset:0;stroke-opacity:1;marker:none;marker-start:none;marker-mid:none;marker-end:none;paint-order:normal;enable-background:new"/><rect id="rect2896" width="103.01" height="103.01" x="12.495" y="184.495" rx="7.924" ry="7.924" style="display:inline;opacity:.1;vector-effect:none;fill:none;fill-opacity:1;stroke:#000;stroke-width:.99000001;stroke-linecap:butt;stroke-linejoin:miter;stroke-miterlimit:4;stroke-dasharray:.99000001,.99000001;stroke-dashoffset:0;stroke-opacity:1;marker:none;marker-start:none;marker-mid:none;marker-end:none;paint-order:normal;enable-background:new"/><rect id="rect2898" width="111.01" height="87.01" x="8.495" y="200.495" rx="7.929" ry="8.701" style="display:inline;opacity:.1;vector-effect:none;fill:none;fill-opacity:1;stroke:#000;stroke-width:.99000001;stroke-linecap:butt;stroke-linejoin:miter;stroke-miterlimit:4;stroke-dasharray:.99000001,.99000001;stroke-dashoffset:0;stroke-opacity:1;marker:none;marker-start:none;marker-mid:none;marker-end:none;paint-order:normal;enable-background:new"/><path id="path2900" d="M 2.6203015e-5,288.99999 H 128.00003" style="display:inline;fill:none;stroke:#62a0ea;stroke-width:2;stroke-linecap:butt;stroke-linejoin:miter;stroke-miterlimit:4;stroke-dasharray:none;stroke-opacity:1;enable-background:new"/></g></g></svg>